<svg xmlns="http://www.w3.org/2000/svg" width="841mm" height="594mm" viewBox="0 0 841 594"><defs><marker id="arr" markerWidth="8" markerHeight="8" refX="7" refY="3" orient="auto"><path d="M0,0 L7,3 L0,6 Z" fill="black"/></marker></defs><rect x="10" y="10" width="821" height="574" fill="none" stroke="black" stroke-width="0.7"/><rect x="20" y="20" width="801" height="554" fill="none" stroke="black" stroke-width="0.35"/><rect x="555" y="500" width="255" height="64" fill="white" stroke="black" stroke-width="0.45"/><line x1="555" y1="512" x2="810" y2="512" stroke="black" stroke-width="0.35"/><line x1="555" y1="524" x2="810" y2="524" stroke="black" stroke-width="0.35"/><line x1="555" y1="544" x2="810" y2="544" stroke="black" stroke-width="0.35"/><line x1="590" y1="500" x2="590" y2="564" stroke="black" stroke-width="0.35"/><line x1="645" y1="500" x2="645" y2="564" stroke="black" stroke-width="0.35"/><line x1="725" y1="500" x2="725" y2="564" stroke="black" stroke-width="0.35"/><line x1="760" y1="500" x2="760" y2="564" stroke="black" stroke-width="0.35"/><line x1="785" y1="500" x2="785" y2="564" stroke="black" stroke-width="0.35"/><text x="560" y="508.0" font-family="Times New Roman" font-size="3" font-weight="normal" text-anchor="start">Изм. Лист № докум. Подп. Дата</text><text x="595" y="508.0" font-family="Times New Roman" font-size="3.2" font-weight="bold" text-anchor="start">ВКР.19.03.03.02.3625.ТХ</text><text x="742" y="508.0" font-family="Times New Roman" font-size="3" font-weight="normal" text-anchor="middle">Лист</text><text x="772" y="508.0" font-family="Times New Roman" font-size="3.8" font-weight="bold" text-anchor="middle">4</text><text x="798" y="508.0" font-family="Times New Roman" font-size="3.8" font-weight="bold" text-anchor="middle">5</text><text x="560" y="520.0" font-family="Times New Roman" font-size="3" font-weight="normal" text-anchor="start">Разраб. Худойкулзода Ш.М.</text><text x="560" y="534.0" font-family="Times New Roman" font-size="3" font-weight="normal" text-anchor="start">Пров. Куренкова Л.А.</text><text x="560" y="556.0" font-family="Times New Roman" font-size="3" font-weight="normal" text-anchor="start">Н.контр. __________</text><text x="686" y="532.0" font-family="Times New Roman" font-size="4" font-weight="bold" text-anchor="middle">Схема мойки</text><text x="686" y="537.0" font-family="Times New Roman" font-size="4" font-weight="bold" text-anchor="middle">оборудования</text><text x="768" y="535.0" font-family="Times New Roman" font-size="3" font-weight="normal" text-anchor="middle">ФГБОУ ВО Вологодская ГМХА</text><text x="768" y="538.75" font-family="Times New Roman" font-size="3" font-weight="normal" text-anchor="middle">Кафедра технологии молока</text><text x="768" y="542.5" font-family="Times New Roman" font-size="3" font-weight="normal" text-anchor="middle">и молочных продуктов</text><text x="30" y="28.0" font-family="Times New Roman" font-size="6" font-weight="bold" text-anchor="start">СХЕМА САНИТАРНОЙ ОБРАБОТКИ ОБОРУДОВАНИЯ</text><rect x="60" y="70" width="70" height="28" fill="white" stroke="black" stroke-width="0.35"/><text x="95" y="86.0" font-family="Times New Roman" font-size="3" font-weight="normal" text-anchor="middle">1 Вода</text><rect x="60" y="120" width="70" height="28" fill="white" stroke="black" stroke-width="0.35"/><text x="95" y="136.0" font-family="Times New Roman" font-size="3" font-weight="normal" text-anchor="middle">2 Щелочь</text><rect x="60" y="170" width="70" height="28" fill="white" stroke="black" stroke-width="0.35"/><text x="95" y="186.0" font-family="Times New Roman" font-size="3" font-weight="normal" text-anchor="middle">3 Кислота</text><rect x="60" y="220" width="70" height="28" fill="white" stroke="black" stroke-width="0.35"/><text x="95" y="236.0" font-family="Times New Roman" font-size="3" font-weight="normal" text-anchor="middle">4 Дезинф.</text><rect x="190" y="145" width="70" height="28" fill="white" stroke="black" stroke-width="0.35"/><text x="225" y="161.0" font-family="Times New Roman" font-size="3" font-weight="normal" text-anchor="middle">5 Насос</text><rect x="310" y="145" width="70" height="28" fill="white" stroke="black" stroke-width="0.35"/><text x="345" y="161.0" font-family="Times New Roman" font-size="3" font-weight="normal" text-anchor="middle">6 Подогрев.</text><rect x="470" y="80" width="70" height="28" fill="white" stroke="black" stroke-width="0.35"/><text x="505" y="96.0" font-family="Times New Roman" font-size="3" font-weight="normal" text-anchor="middle">I Линия масла</text><rect x="470" y="155" width="70" height="28" fill="white" stroke="black" stroke-width="0.35"/><text x="505" y="171.0" font-family="Times New Roman" font-size="3" font-weight="normal" text-anchor="middle">II Линия пахты</text><rect x="470" y="230" width="70" height="28" fill="white" stroke="black" stroke-width="0.35"/><text x="505" y="246.0" font-family="Times New Roman" font-size="3" font-weight="normal" text-anchor="middle">III Резервуары</text><rect x="650" y="155" width="70" height="28" fill="white" stroke="black" stroke-width="0.35"/><text x="685" y="171.0" font-family="Times New Roman" font-size="3" font-weight="normal" text-anchor="middle">7 Возврат</text><polyline points="130,84 190,159" fill="none" stroke="black" stroke-width="0.35" marker-end="url(#arr)"/><polyline points="130,134 190,159" fill="none" stroke="black" stroke-width="0.35" marker-end="url(#arr)"/><polyline points="130,184 190,159" fill="none" stroke="black" stroke-width="0.35" marker-end="url(#arr)"/><polyline points="130,234 190,159" fill="none" stroke="black" stroke-width="0.35" marker-end="url(#arr)"/><polyline points="260,159 310,159" fill="none" stroke="black" stroke-width="0.35" marker-end="url(#arr)"/><polyline points="380,159 470,94" fill="none" stroke="black" stroke-width="0.35" marker-end="url(#arr)"/><polyline points="380,159 470,169" fill="none" stroke="black" stroke-width="0.35" marker-end="url(#arr)"/><polyline points="380,159 470,244" fill="none" stroke="black" stroke-width="0.35" marker-end="url(#arr)"/><polyline points="540,94 650,169" fill="none" stroke="black" stroke-width="0.35" marker-end="url(#arr)"/><polyline points="540,169 650,169" fill="none" stroke="black" stroke-width="0.35" marker-end="url(#arr)"/><polyline points="540,244 650,169" fill="none" stroke="black" stroke-width="0.35" marker-end="url(#arr)"/><polyline points="720,169 190,159" fill="none" stroke="black" stroke-width="0.35" marker-end="url(#arr)" stroke-dasharray="3 2"/><rect x="35" y="330" width="110" height="10" fill="#f3f3f3" stroke="black" stroke-width="0.35"/><text x="90.0" y="336.06666666666666" font-family="Times New Roman" font-size="3.2" font-weight="normal" text-anchor="middle">Операция</text><rect x="145" y="330" width="150" height="10" fill="#f3f3f3" stroke="black" stroke-width="0.35"/><text x="220.0" y="336.06666666666666" font-family="Times New Roman" font-size="3.2" font-weight="normal" text-anchor="middle">Маршрут I</text><rect x="295" y="330" width="150" height="10" fill="#f3f3f3" stroke="black" stroke-width="0.35"/><text x="370.0" y="336.06666666666666" font-family="Times New Roman" font-size="3.2" font-weight="normal" text-anchor="middle">Маршрут II</text><rect x="445" y="330" width="150" height="10" fill="#f3f3f3" stroke="black" stroke-width="0.35"/><text x="520.0" y="336.06666666666666" font-family="Times New Roman" font-size="3.2" font-weight="normal" text-anchor="middle">Маршрут III</text><rect x="35" y="340" width="110" height="10" fill="white" stroke="black" stroke-width="0.35"/><text x="90.0" y="346.06666666666666" font-family="Times New Roman" font-size="3.2" font-weight="normal" text-anchor="middle">Ополаскивание</text><rect x="145" y="340" width="150" height="10" fill="white" stroke="black" stroke-width="0.35"/><text x="220.0" y="346.06666666666666" font-family="Times New Roman" font-size="3.2" font-weight="normal" text-anchor="middle">35-40 °C, 10 мин</text><rect x="295" y="340" width="150" height="10" fill="white" stroke="black" stroke-width="0.35"/><text x="370.0" y="346.06666666666666" font-family="Times New Roman" font-size="3.2" font-weight="normal" text-anchor="middle">35-40 °C, 10 мин</text><rect x="445" y="340" width="150" height="10" fill="white" stroke="black" stroke-width="0.35"/><text x="520.0" y="346.06666666666666" font-family="Times New Roman" font-size="3.2" font-weight="normal" text-anchor="middle">35-40 °C, 10 мин</text><rect x="35" y="350" width="110" height="10" fill="white" stroke="black" stroke-width="0.35"/><text x="90.0" y="356.06666666666666" font-family="Times New Roman" font-size="3.2" font-weight="normal" text-anchor="middle">Щелочная мойка</text><rect x="145" y="350" width="150" height="10" fill="white" stroke="black" stroke-width="0.35"/><text x="220.0" y="356.06666666666666" font-family="Times New Roman" font-size="3.2" font-weight="normal" text-anchor="middle">1,0-1,5 %, 70 °C</text><rect x="295" y="350" width="150" height="10" fill="white" stroke="black" stroke-width="0.35"/><text x="370.0" y="356.06666666666666" font-family="Times New Roman" font-size="3.2" font-weight="normal" text-anchor="middle">1,0 %, 65 °C</text><rect x="445" y="350" width="150" height="10" fill="white" stroke="black" stroke-width="0.35"/><text x="520.0" y="356.06666666666666" font-family="Times New Roman" font-size="3.2" font-weight="normal" text-anchor="middle">1,0-1,5 %, 65 °C</text><rect x="35" y="360" width="110" height="10" fill="white" stroke="black" stroke-width="0.35"/><text x="90.0" y="366.06666666666666" font-family="Times New Roman" font-size="3.2" font-weight="normal" text-anchor="middle">Кислотная мойка</text><rect x="145" y="360" width="150" height="10" fill="white" stroke="black" stroke-width="0.35"/><text x="220.0" y="366.06666666666666" font-family="Times New Roman" font-size="3.2" font-weight="normal" text-anchor="middle">0,5-1,0 %, 60 °C</text><rect x="295" y="360" width="150" height="10" fill="white" stroke="black" stroke-width="0.35"/><text x="370.0" y="366.06666666666666" font-family="Times New Roman" font-size="3.2" font-weight="normal" text-anchor="middle">по графику</text><rect x="445" y="360" width="150" height="10" fill="white" stroke="black" stroke-width="0.35"/><text x="520.0" y="366.06666666666666" font-family="Times New Roman" font-size="3.2" font-weight="normal" text-anchor="middle">0,5 %, 60 °C</text><rect x="35" y="370" width="110" height="10" fill="white" stroke="black" stroke-width="0.35"/><text x="90.0" y="376.06666666666666" font-family="Times New Roman" font-size="3.2" font-weight="normal" text-anchor="middle">Дезинфекция</text><rect x="145" y="370" width="150" height="10" fill="white" stroke="black" stroke-width="0.35"/><text x="220.0" y="376.06666666666666" font-family="Times New Roman" font-size="3.2" font-weight="normal" text-anchor="middle">10 мин</text><rect x="295" y="370" width="150" height="10" fill="white" stroke="black" stroke-width="0.35"/><text x="370.0" y="376.06666666666666" font-family="Times New Roman" font-size="3.2" font-weight="normal" text-anchor="middle">10 мин</text><rect x="445" y="370" width="150" height="10" fill="white" stroke="black" stroke-width="0.35"/><text x="520.0" y="376.06666666666666" font-family="Times New Roman" font-size="3.2" font-weight="normal" text-anchor="middle">10 мин</text><rect x="35" y="380" width="110" height="10" fill="white" stroke="black" stroke-width="0.35"/><text x="90.0" y="386.06666666666666" font-family="Times New Roman" font-size="3.2" font-weight="normal" text-anchor="middle">Ополаскивание</text><rect x="145" y="380" width="150" height="10" fill="white" stroke="black" stroke-width="0.35"/><text x="220.0" y="386.06666666666666" font-family="Times New Roman" font-size="3.2" font-weight="normal" text-anchor="middle">20-25 °C, 5 мин</text><rect x="295" y="380" width="150" height="10" fill="white" stroke="black" stroke-width="0.35"/><text x="370.0" y="386.06666666666666" font-family="Times New Roman" font-size="3.2" font-weight="normal" text-anchor="middle">20-25 °C, 5 мин</text><rect x="445" y="380" width="150" height="10" fill="white" stroke="black" stroke-width="0.35"/><text x="520.0" y="386.06666666666666" font-family="Times New Roman" font-size="3.2" font-weight="normal" text-anchor="middle">20-25 °C, 5 мин</text></svg>